#!OML:ASF I:\Random Stuff\random\construction\7_22_03\Session 2\subj1.ASF
:FULLY-SPECIFIED
:DEGREES
1243
root -8.69425 17.5903 -6.12082 -137.125 65.473 -155.018
lowerback 15.3981 1.85753 -8.75556
upperback 6.63504 2.01513 -9.54906
thorax -1.38435 1.41458 -5.58757
lowerneck -20.5006 -3.27415 0.558676
upperneck 43.6947 -4.62562 4.8334
head 21.2524 -0.332601 1.59111
rclavicle 6.36111e-015 9.54166e-015
rhumerus -5.20241 55.7714 -56.0852
rradius 70.8021
rwrist -61.2856
rhand -5.36616 -12.889
rfingers 7.12502
rthumb 20.4416 -41.833
lclavicle 6.36111e-015 9.54166e-015
lhumerus 35.1581 -74.3592 62.9547
lradius 35.4781
lwrist -1.28238
lhand -19.7374 61.4337
lfingers 7.12502
lthumb 6.59331 -91.3111
rfemur -10.6476 -6.92334 23.5527
rtibia -5.08889e-014
rfoot -3.52291 -16.0404
rtoes -16.9539
lfemur -41.9319 -8.11467 -2.93664
ltibia 36.6283
lfoot -14.6666 -4.92714
ltoes -28.7106
1244
root -8.69708 17.5925 -6.1186 -137.27 65.4946 -155.151
lowerback 15.5029 1.83976 -8.76328
upperback 6.67308 1.9847 -9.54177
thorax -1.40021 1.40131 -5.57487
lowerneck -20.5566 -3.26059 0.555995
upperneck 43.6567 -4.60532 4.80787
head 21.2393 -0.331648 1.58001
rclavicle 4.13472e-014 -1.59028e-014
rhumerus -5.02519 56.0183 -55.8689
rradius 71.0017
rwrist -63.1461
rhand -5.38739 -13.2209
rfingers 7.12502
rthumb 20.4212 -42.1671
lclavicle 4.13472e-014 -1.59028e-014
lhumerus 34.9779 -74.207 63.1291
lradius 35.5591
lwrist -1.34618
lhand -19.753 61.4034
lfingers 7.12502
lthumb 6.57824 -91.2813
rfemur -10.5864 -6.94798 23.4866
rtibia -2.06736e-014
rfoot -3.74691 -15.9955
rtoes -15.9119
lfemur -41.8878 -8.33992 -2.9116
ltibia 36.5508
lfoot -14.6938 -4.72895
ltoes -28.6984
1245
root -8.69644 17.5992 -6.11246 -137.015 65.4441 -154.914
lowerback 15.4716 1.83878 -8.65156
upperback 6.71003 2.005 -9.49122
thorax -1.34392 1.40931 -5.58179
lowerneck -20.5904 -3.24822 0.517544
upperneck 43.6389 -4.61123 4.8914
head 21.2444 -0.32943 1.62864
rclavicle -2.54444e-014 -5.725e-014
rhumerus -4.92399 56.0936 -55.7986
rradius 71.2292
rwrist -64.3305
rhand -5.69889 -13.5331
rfingers 7.12502
rthumb 20.1218 -42.511
lclavicle -2.54444e-014 -5.725e-014
lhumerus 35.2315 -74.1703 62.8357
lradius 35.6012
lwrist -1.50809
lhand -19.8697 61.2761
lfingers 7.12502
lthumb 6.46561 -91.1574
rfemur -10.5087 -6.90657 23.6178
rtibia 4.77083e-015
rfoot -4.30486 -15.8574
rtoes -12.9981
lfemur -41.8962 -8.41584 -2.6995
ltibia 36.4961
lfoot -14.779 -4.61264
ltoes -28.8198
1246
root -8.69305 17.5991 -6.10338 -136.568 65.3001 -154.357
lowerback 15.7343 1.79441 -8.31466
upperback 6.62659 1.93048 -9.47715
thorax -1.57336 1.37668 -5.75973
lowerneck -20.5159 -3.20455 0.577732
upperneck 43.7135 -4.55327 4.91064
head 21.2721 -0.290285 1.64657
rclavicle -4.13472e-014 -1.30403e-013
rhumerus -5.08158 56.3259 -56.1561
rradius 71.4455
rwrist -64.3729
rhand -6.22342 -13.7056
rfingers 7.12502
rthumb 19.6176 -42.7358
lclavicle -4.13472e-014 -1.30403e-013
lhumerus 34.8985 -74.1736 62.9352
lradius 35.6252
lwrist -1.55481
lhand -19.8788 61.2653
lfingers 7.12502
lthumb 6.45685 -91.1468
rfemur -10.3571 -6.84136 23.9261
rtibia 0
rfoot -4.77321 -15.7506
rtoes -10.4951
lfemur -41.8195 -8.34001 -2.36694
ltibia 36.4661
lfoot -14.7879 -4.6534
ltoes -28.9282
1247
root -8.69437 17.5985 -6.1018 -136.577 65.254 -154.376
lowerback 15.5661 1.82713 -8.40394
upperback 6.78281 2.01129 -9.34502
thorax -1.31925 1.40883 -5.5629
lowerneck -20.5625 -3.21497 0.607378
upperneck 43.6324 -4.54114 4.76913
head 21.2155 -0.306748 1.56306
rclavicle -6.04305e-014 1.59028e-014
rhumerus -4.7873 56.4093 -55.8069
rradius 71.5994
rwrist -63.4427
rhand -7.27454 -13.8245
rfingers 7.12502
rthumb 18.6068 -42.9546
lclavicle -6.04305e-014 1.59028e-014
lhumerus 35.7282 -74.058 62.3518
lradius 35.5549
lwrist -1.41952
lhand -19.7648 61.3352
lfingers 7.12502
lthumb 6.56685 -91.2134
rfemur -10.3506 -6.88111 23.9482
rtibia 7.95139e-015
rfoot -4.95369 -15.7098
rtoes -9.73985
lfemur -41.8584 -8.36696 -2.33163
ltibia 36.4613
lfoot -14.7716 -4.7031
ltoes -28.7003
1248
root -8.69941 17.5977 -6.10722 -137.163 65.3317 -155.144
lowerback 15.5966 1.7577 -8.57241
upperback 6.78648 1.90276 -9.41342
thorax -1.33411 1.35833 -5.52726
lowerneck -20.5567 -3.17934 0.6556
upperneck 43.6247 -4.48277 4.72183
head 21.2002 -0.283866 1.54233
rclavicle 6.36111e-015 6.99722e-014
rhumerus -4.59297 56.7071 -55.7192
rradius 71.5797
rwrist -62.246
rhand -8.61907 -13.941
rfingers 7.12502
rthumb 17.3131 -43.1898
lclavicle 6.36111e-015 6.99722e-014
lhumerus 35.6404 -73.9336 62.5368
lradius 35.4254
lwrist -1.34975
lhand -19.7406 61.369
lfingers 7.12502
lthumb 6.5902 -91.2464
rfemur -10.5367 -7.05395 23.6204
rtibia -2.38542e-014
rfoot -4.61796 -15.7182
rtoes -11.6528
lfemur -42.0503 -8.57726 -2.64393
ltibia 36.4809
lfoot -14.7761 -4.68724
ltoes -28.5975
1249
root -8.70091 17.5906 -6.10935 -137.723 65.333 -155.798
lowerback 15.7234 1.70964 -8.69834
upperback 6.76694 1.80688 -9.44848
thorax -1.42555 1.31406 -5.48683
lowerneck -20.4362 -3.18837 0.714404
upperneck 43.6555 -4.4932 4.70153
head 21.1822 -0.278759 1.52076
rclavicle 1.59028e-014 -9.54166e-015
rhumerus -4.4415 57.0644 -55.6412
rradius 71.4167
rwrist -61.669
rhand -9.58251 -14.1193
rfingers 7.12502
rthumb 16.3856 -43.4472
lclavicle 1.59028e-014 -9.54166e-015
lhumerus 35.7254 -73.985 62.4684
lradius 35.3751
lwrist -1.28746
lhand -19.7883 61.4865
lfingers 7.12502
lthumb 6.54414 -91.3654
rfemur -10.6912 -7.24621 23.4018
rtibia -3.18055e-015
rfoot -4.02313 -15.7316
rtoes -15.0284
lfemur -42.1638 -8.762 -2.87711
ltibia 36.4823
lfoot -14.7279 -4.68841
ltoes -28.748
1250
root -8.70036 17.5859 -6.11108 -138.104 65.1961 -156.182
lowerback 15.9354 1.6721 -8.64065
upperback 6.74502 1.73273 -9.447
thorax -1.5638 1.28179 -5.51686
lowerneck -20.2952 -3.23696 0.751655
upperneck 43.6925 -4.58293 4.74672
head 21.1714 -0.296752 1.52004
rclavicle -2.8625e-014 3.18055e-015
rhumerus -4.47221 57.4848 -55.6509
rradius 71.2428
rwrist -61.5838
rhand -10.0178 -14.2408
rfingers 7.12502
rthumb 15.9665 -43.6028
lclavicle -2.8625e-014 3.18055e-015
lhumerus 36.2921 -74.2386 61.8469
lradius 35.3846
lwrist -1.2161
lhand -19.8619 61.4748
lfingers 7.12502
lthumb 6.47312 -91.3559
rfemur -10.6934 -7.46401 23.3519
rtibia -4.77083e-015
rfoot -3.8399 -15.6846
rtoes -16.6392
lfemur -42.2121 -9.01634 -2.90806
ltibia 36.4699
lfoot -14.6505 -4.63654
ltoes -28.687
1251
root -8.69835 17.5899 -6.11363 -138.214 65.045 -156.357
lowerback 16.0194 1.64524 -8.51985
upperback 6.7204 1.69572 -9.43178
thorax -1.63604 1.26519 -5.56638
lowerneck -20.2111 -3.3018 0.718074
upperneck 43.7168 -4.71731 4.8829
head 21.1805 -0.33124 1.56914
rclavicle -3.18055e-015 6.99722e-014
rhumerus -4.51128 58.0794 -55.5566
rradius 71.1089
rwrist -61.1454
rhand -11.7304 -13.5378
rfingers 7.12502
rthumb 14.3168 -43.0242
lclavicle -3.18055e-015 6.99722e-014
lhumerus 37.0078 -74.5088 61.0962
lradius 35.3735
lwrist -1.1633
lhand -19.949 61.2941
lfingers 7.12502
lthumb 6.38901 -91.1777
rfemur -10.6537 -7.62335 23.3905
rtibia -2.38542e-014
rfoot -4.19557 -15.5995
rtoes -15.093
lfemur -42.3157 -9.12974 -2.87175
ltibia 36.4765
lfoot -14.6696 -4.66312
ltoes -28.9552
1252
root -8.69701 17.59 -6.11992 -138.498 64.7678 -156.653
lowerback 16.1656 1.53255 -8.30943
upperback 6.7409 1.56075 -9.41592
thorax -1.69547 1.20288 -5.6497
lowerneck -20.1073 -3.33936 0.675804
upperneck 43.7263 -4.8136 5.03759
head 21.1728 -0.351879 1.63732
rclavicle 6.67916e-014 -2.8625e-014
rhumerus -4.37715 58.8924 -55.3119
rradius 71.0228
rwrist -60.0078
rhand -12.7127 -13.0529
rfingers 7.12502
rthumb 13.3701 -42.604
lclavicle 6.67916e-014 -2.8625e-014
lhumerus 37.4031 -74.6244 60.6533
lradius 35.3885
lwrist -1.00163
lhand -20.0443 61.2716
lfingers 7.12502
lthumb 6.29705 -91.158
rfemur -10.5512 -7.91927 23.4497
rtibia 1.90833e-014
rfoot -4.63513 -15.6222
rtoes -12.8249
lfemur -42.4303 -9.47371 -2.78047
ltibia 36.4911
lfoot -14.6738 -4.60749
ltoes -29.3885
1253
root -8.69659 17.5832 -6.1255 -138.848 64.4731 -157.053
lowerback 16.2551 1.38824 -8.12257
upperback 6.79431 1.39766 -9.4088
thorax -1.6908 1.12681 -5.72023
lowerneck -20.0125 -3.36475 0.676784
upperneck 43.6881 -4.88813 5.11916
head 21.1253 -0.370834 1.66047
rclavicle -3.49861e-014 1.59028e-014
rhumerus -4.18242 59.6723 -55.0325
rradius 71.0159
rwrist -58.9186
rhand -13.6693 -12.8896
rfingers 7.12502
rthumb 12.448 -42.4989
lclavicle -3.49861e-014 1.59028e-014
lhumerus 38.0482 -74.6827 59.9725
lradius 35.3866
lwrist -0.688619
lhand -20.1619 61.4446
lfingers 7.12502
lthumb 6.1835 -91.3344
rfemur -10.5663 -8.25992 23.4929
rtibia -9.54166e-015
rfoot -4.6706 -15.6968
rtoes -12.6619
lfemur -42.6037 -9.77736 -2.73062
ltibia 36.5025
lfoot -14.6235 -4.65212
ltoes -29.0984
1254
root -8.69201 17.5801 -6.13274 -139.11 64.2391 -157.396
lowerback 16.2339 1.27759 -7.94484
upperback 6.84425 1.29287 -9.42881
thorax -1.62853 1.07935 -5.82082
lowerneck -19.9606 -3.39655 0.7499
upperneck 43.6743 -4.9693 5.1209
head 21.1008 -0.389571 1.62853
rclavicle -1.59028e-014 -2.54444e-014
rhumerus -4.14129 60.2406 -54.9334
rradius 71.0852
rwrist -58.5733
rhand -14.6628 -12.9269
rfingers 7.12502
rthumb 11.49 -42.592
lclavicle -1.59028e-014 -2.54444e-014
lhumerus 39.0602 -74.8496 58.8932
lradius 35.3695
lwrist -0.336243
lhand -20.2081 61.7038
lfingers 7.12502
lthumb 6.13889 -91.5948
rfemur -10.5881 -8.5421 23.4964
rtibia -2.06736e-014
rfoot -4.49595 -15.6235
rtoes -13.7662
lfemur -42.766 -9.95695 -2.731
ltibia 36.5158
lfoot -14.6088 -4.74916
ltoes -28.4498
1255
root -8.68682 17.5815 -6.13764 -139.55 63.9583 -157.817
lowerback 16.3963 1.15682 -7.78561
upperback 6.86762 1.14667 -9.48139
thorax -1.69359 1.01559 -5.94967
lowerneck -19.8451 -3.42273 0.852663
upperneck 43.7091 -5.06519 5.18938
head 21.0968 -0.395667 1.62688
rclavicle 0 -9.85972e-014
rhumerus -4.32848 60.6026 -55.1832
rradius 71.2141
rwrist -58.3891
rhand -15.4233 -12.9809
rfingers 7.12502
rthumb 10.7565 -42.6855
lclavicle 0 -9.85972e-014
lhumerus 39.7006 -75.0527 58.1092
lradius 35.3655
lwrist -0.0536785
lhand -20.1912 61.9856
lfingers 7.12502
lthumb 6.15519 -91.8762
rfemur -10.5247 -8.8856 23.5052
rtibia 1.27222e-014
rfoot -4.39309 -15.6616
rtoes -14.8615
lfemur -42.8203 -10.199 -2.75691
ltibia 36.5125
lfoot -14.5925 -4.84829
ltoes -28.0547
1256
root -8.67813 17.5846 -6.14179 -139.812 63.7197 -158.093
lowerback 16.487 1.10988 -7.56503
upperback 6.91169 1.11743 -9.50676
thorax -1.69381 1.00819 -6.10018
lowerneck -19.7956 -3.53757 0.718433
upperneck 43.7113 -5.27563 5.39909
head 21.1162 -0.467387 1.7143
rclavicle -6.36111e-015 -3.18055e-014
rhumerus -4.64212 60.5891 -55.4478
rradius 71.4196
rwrist -57.8532
rhand -15.9245 -13.0302
rfingers 7.12502
rthumb 10.273 -42.7594
lclavicle -6.36111e-015 -3.18055e-014
lhumerus 40.7629 -75.3348 57.0793
lradius 35.3693
lwrist 0.240652
lhand -20.144 62.3586
lfingers 7.12502
lthumb 6.20077 -92.2479
rfemur -10.5442 -9.14926 23.563
rtibia -2.06736e-014
rfoot -4.32785 -15.763
rtoes -15.3776
lfemur -42.8649 -10.3323 -2.75627
ltibia 36.4688
lfoot -14.5616 -4.97031
ltoes -27.8869
1257
root -8.6699 17.5875 -6.14904 -140.166 63.47 -158.425
lowerback 16.6694 1.04419 -7.38417
upperback 6.92899 1.03977 -9.50877
thorax -1.77525 0.975634 -6.19873
lowerneck -19.6629 -3.61145 0.67929
upperneck 43.7082 -5.38479 5.456
head 21.0849 -0.507384 1.72678
rclavicle 3.49861e-014 4.77083e-014
rhumerus -4.92006 60.5597 -55.6994
rradius 71.6851
rwrist -57.1658
rhand -16.2977 -13.2557
rfingers 7.12502
rthumb 9.91298 -43.0023
lclavicle 3.49861e-014 4.77083e-014
lhumerus 41.2466 -75.562 56.6163
lradius 35.3863
lwrist 0.432434
lhand -20.1262 62.5471
lfingers 7.12502
lthumb 6.218 -92.4359
rfemur -10.4512 -9.44957 23.5566
rtibia 1.59028e-015
rfoot -4.10737 -15.6292
rtoes -16.2197
lfemur -42.8571 -10.4805 -2.807
ltibia 36.3913
lfoot -14.566 -5.12327
ltoes -27.8083
